# AST/ASF file generated using VICON BodyLanguage
# -----------------------------------------------
:version 1.10
:name VICON
:units
  mass 1.0
  length 0.45
  angle deg
:documentation
   .ast/.asf automatically generated from VICON data using
   VICON BodyBuilder and BodyLanguage model FoxedUp or BRILLIANT.MOD
:root
   order TX TY TZ RX RY RZ
   axis XYZ
   position 0 0 0  
   orientation 0 0 0 
:bonedata
  begin
     id 1 
     name lhipjoint
     direction 0.690799 -0.707083 0.151096 
     length 2.54797 
     axis 0 0 0  XYZ
  end
  begin
     id 2 
     name lfemur
     direction 0.34202 -0.939693 0  
     length 7.21646  
     axis 0 0 20  XYZ
    dof rx ry rz
    limits (-160.0 20.0)
           (-70.0 70.0)
           (-60.0 70.0)
  end
  begin
     id 3 
     name ltibia
     direction 0.34202 -0.939693 0   
     length 8.16759   
     axis 0 0 20   XYZ
    dof rx
    limits (-10.0 170.0)
  end
  begin
     id 4 
     name lfoot
     direction 0.0487203 -0.133858 0.989802   
     length 1.93375   
     axis -90 7.62852e-016 20   XYZ
    dof rx rz
    limits (-45.0 90.0)
           (-70.0 20.0)
  end
  begin
     id 5 
     name ltoes
     direction 1.53453e-011 -4.21783e-011 1   
     length 0.979747   
     axis -90 7.62852e-016 20   XYZ
    dof rx
    limits (-90.0 20.0)
  end
  begin
     id 6 
     name rhipjoint
     direction -0.694693 -0.703425 0.150315   
     length 2.56122  
     axis 0 0 0  XYZ 
  end
  begin
     id 7 
     name rfemur
     direction -0.34202 -0.939693 0   
     length 7.36786   
     axis 0 0 -20   XYZ
    dof rx ry rz
    limits (-160.0 20.0)
           (-70.0 70.0)
           (-70.0 60.0)
  end
  begin
     id 8 
     name rtibia
     direction -0.34202 -0.939693 0   
     length 8.07288   
     axis 0 0 -20   XYZ
    dof rx
    limits (-10.0 170.0)
 end
 begin
     id 9 
     name rfoot
     direction -0.0428397 -0.117701 0.992125   
     length 1.88295  
     axis -90 -7.62852e-016 -20   XYZ
    dof rx rz
    limits (-45.0 90.0)
           (-20.0 70.0)
  end
  begin
     id 10 
     name rtoes
     direction -1.53456e-011 -4.2187e-011 1   
     length 0.955578   
     axis -90 -7.62852e-016 -20   XYZ
    dof rx
    limits (-90.0 20.0)
  end
  begin
     id 11 
     name lowerback
     direction 0.0288145 0.999398 -0.0193241   
     length 1.92149   
     axis 0 0 0   XYZ
    dof rx ry rz
    limits (-20.0 45.0)
           (-30.0 30.0)
           (-30.0 30.0)
  end
  begin
     id 12 
     name upperback
     direction 0.0233784 0.998099 0.0570278   
     length 1.90435   
     axis 0 0 0   XYZ
    dof rx ry rz
    limits (-20.0 45.0)
           (-30.0 30.0)
           (-30.0 30.0)
  end
  begin
     id 13 
     name thorax
     direction 0.0096694 0.997833 0.0650817   
     length 1.9111   
     axis 0 0 0   XYZ
    dof rx ry rz
    limits (-20.0 45.0)
           (-30.0 30.0)
           (-30.0 30.0)
  end
  begin
     id 14 
     name lowerneck
     direction 0.00516803 0.999916 0.0118722   
     length 1.74664   
     axis 0 0 0   XYZ
    dof rx ry rz
    limits (-20.0 45.0)
           (-30.0 30.0)
           (-30.0 30.0)
  end
  begin
     id 15 
     name upperneck
     direction -0.0510851 0.996117 -0.071696   
     length 1.68498   
     axis 0 0 0   XYZ
    dof rx ry rz
    limits (-20.0 45.0)
           (-30.0 30.0)
           (-30.0 30.0)
  end
  begin
     id 16
     name head
     direction -0.019188 0.999436 -0.0275702  
     length 1.83483  
     axis 0 0 0   XYZ
    dof rx ry rz
    limits (-20.0 45.0)
           (-30.0 30.0)
           (-30.0 30.0)
  end
  begin
     id 17 
     name lclavicle
     direction 0.967006 0.248456 -0.0562957  
     length 3.39395  
     axis 0 0 0   XYZ
    dof ry rz
    limits (-20.0 10.0)
           (0.0 20.0)
  end
  begin
     id 18 
     name lhumerus
     direction 1 -4.48962e-011 -5.62711e-019   
     length 5.24318   
     axis 180 -30 -90   XYZ
    dof rx ry rz
    limits (-60.0 90.0)
           (-90.0 90.0)
           (-90.0 90.0)
  end
  begin
     id 19
     name lradius
     direction 1 -4.48966e-011 7.90625e-027   
     length 2.98999   
     axis 180 -30 -90   XYZ
    dof rx
    limits (-10.0 170.0)
  end
  begin
     id 20
     name lwrist
     direction 1 -4.48959e-011 1.61068e-026   
     length 1.49499   
     axis -9.31229e-015 90 90   XYZ
    dof ry
    limits (-180.0 0.0)
 end
  begin
     id 21 
     name lhand
     direction 1 -4.49017e-011 3.22136e-026   
     length 0.726745   
     axis -2.0555e-014 90 90   XYZ
    dof rx rz
    limits (-90.0 90.0)
           (-45.0 45.0)
  end
  begin
     id 22 
     name lfingers
     direction 1 -4.4898e-011 6.44272e-026   
     length 0.58592   
     axis -4.11101e-014 90 90   XYZ
    dof rx
    limits (0.0 90.0)
  end
  begin
     id 23
     name lthumb
     direction 0.707107 -6.34922e-011 0.707107   
     length 0.841268   
     axis -90 45 2.85299e-015   XYZ
    dof rx rz
    limits (-45.0 45.0)
           (-45.0 45.0)
  end
  begin
     id 24 
     name rclavicle
     direction -0.972232 0.230238 0.0419005   
     length 3.40416  
     axis 0 0 0   XYZ 
    dof ry rz
    limits (-10.0 20.0)
           (-20.0 0.0)
  end
  begin
     id 25 
     name rhumerus
     direction -1 -4.48976e-011 2.48487e-027  
     length 5.37045   
     axis 180 30 90   XYZ
    dof rx ry rz
    limits (-90.0 60.0)
           (-90.0 90.0)
           (-90.0 90.0)
  end
  begin
     id 26 
     name rradius
     direction -1 -4.48942e-011 7.87951e-027   
     length 2.92792   
     axis 180 30 90   XYZ
    dof rx
    limits (-10.0 170.0)
  end
  begin
     id 27 
     name rwrist
     direction -1 -4.48969e-011 1.61068e-026   
     length 1.46396   
     axis -9.31229e-015 -90 -90   XYZ
    dof ry
    limits (-180.0 0.0)
  end
  begin
     id 28
     name rhand
     direction -1 -4.49043e-011 3.22136e-026   
     length 0.784497   
     axis -2.0555e-014 -90 -90   XYZ
    dof rx rz
    limits (-90.0 90.0)
           (-45.0 45.0)
  end
  begin
     id 29
     name rfingers
     direction -1 -4.48823e-011 6.44272e-026   
     length 0.632482   
     axis -4.11101e-014 -90 -90   XYZ
    dof rx
    limits (0.0 90.0)
  end
  begin
     id 30
     name rthumb
     direction -0.707107 -6.34923e-011 0.707107   
     length 0.908121   
     axis -90 -45 -2.85299e-015   XYZ
    dof rx rz
    limits (-45.0 45.0)
           (-45.0 45.0)
  end
:hierarchy
  begin
    root lhipjoint rhipjoint lowerback
    lhipjoint lfemur
    lfemur ltibia
    ltibia lfoot
    lfoot ltoes
    rhipjoint rfemur
    rfemur rtibia
    rtibia rfoot
    rfoot rtoes
    lowerback upperback
    upperback thorax
    thorax lowerneck lclavicle rclavicle
    lowerneck upperneck
    upperneck head
    lclavicle lhumerus
    lhumerus lradius
    lradius lwrist
    lwrist lhand lthumb
    lhand lfingers
    rclavicle rhumerus
    rhumerus rradius
    rradius rwrist
    rwrist rhand rthumb
    rhand rfingers
  end

#!OML:ASF E:\Style6\Style6.ASF
:FULLY-SPECIFIED
:DEGREES
726
root 0.0683528 15.9057 0.697181 13.1505 -2.95066 -5.44857
lowerback 5.99617 -2.80268 1.21079
upperback -4.18202 -3.5238 1.83854
thorax -7.71046 -1.74069 1.69726
lowerneck -11.3137 -0.0591516 3.77847
upperneck 15.1634 0.171639 -5.67077
head 6.47562 -0.175086 -2.42686
rclavicle 2.48978e-014 -1.55052e-014
rhumerus 17.0887 -64.3094 8.90574
rradius 33.6704
rwrist 29.396
rhand 6.67213 -2.82064
rfingers 7.12502
rthumb 31.9635 -30.0339
lclavicle 2.48978e-014 -1.55052e-014
lhumerus -108.382 -53.7183 136.78
lradius 94.9988
lwrist 12.8258
lhand -1.70483 2.3114
lfingers 7.12502
lthumb 23.9565 30.8368
rfemur -44.8278 -10.2915 27.1442
rtibia 63.5325
rfoot -21.2272 14.6309
rtoes 11.8428
lfemur -43.9457 13.1898 -12.1502
ltibia 67.4296
lfoot -29.6396 -0.523973
ltoes -28.2613
727
root 0.0662337 15.9047 0.696869 13.1794 -2.94668 -5.4773
lowerback 5.95528 -2.81427 1.26434
upperback -4.18326 -3.53639 1.82246
thorax -7.69223 -1.75041 1.64981
lowerneck -11.3676 -0.0534694 3.81241
upperneck 15.1727 0.163859 -5.62174
head 6.48759 -0.173569 -2.41784
rclavicle -8.64713e-015 -1.03368e-014
rhumerus 18.1226 -64.2848 8.27429
rradius 34.373
rwrist 29.2669
rhand 6.04703 -2.54496
rfingers 7.12502
rthumb 31.3681 -29.8756
lclavicle -8.64713e-015 -1.03368e-014
lhumerus -108.346 -53.7745 136.703
lradius 95.01
lwrist 12.9634
lhand -1.37639 2.22381
lfingers 7.12502
lthumb 24.2714 30.7074
rfemur -44.8667 -10.284 27.1985
rtibia 63.5277
rfoot -21.3224 14.51
rtoes 11.1949
lfemur -43.9767 13.1858 -12.1124
ltibia 67.4247
lfoot -29.6568 -0.557851
ltoes -28.1867
728
root 0.0637609 15.9036 0.695676 13.1848 -2.95679 -5.4661
lowerback 5.97393 -2.83861 1.22316
upperback -4.19141 -3.57254 1.82144
thorax -7.70876 -1.76587 1.67764
lowerneck -11.4453 -0.0213713 3.81856
upperneck 15.2187 0.196351 -5.56453
head 6.51752 -0.154037 -2.3987
rclavicle -6.13251e-014 2.38542e-015
rhumerus 19.0399 -64.1992 7.64249
rradius 35.2527
rwrist 29.0938
rhand 5.45344 -2.42911
rfingers 7.12502
rthumb 30.8024 -29.8681
lclavicle -6.13251e-014 2.38542e-015
lhumerus -108.3 -53.7666 136.67
lradius 94.9963
lwrist 12.9871
lhand -1.23474 2.21493
lfingers 7.12502
lthumb 24.4072 30.6803
rfemur -44.8874 -10.2883 27.2053
rtibia 63.5313
rfoot -21.3726 14.4558
rtoes 10.8443
lfemur -43.9803 13.1686 -12.1141
ltibia 67.4139
lfoot -29.6305 -0.552632
ltoes -28.0769
729
root 0.0612537 15.9065 0.695487 13.1699 -2.99095 -5.43386
lowerback 6.00309 -2.85766 1.15373
upperback -4.19527 -3.60372 1.82592
thorax -7.72464 -1.7772 1.72679
lowerneck -11.4499 0.0149335 3.80392
upperneck 15.2155 0.240644 -5.5189
head 6.51959 -0.129789 -2.37763
rclavicle 1.60022e-014 1.39149e-014
rhumerus 19.9259 -64.085 7.04063
rradius 36.212
rwrist 28.9126
rhand 5.03137 -2.48059
rfingers 7.12502
rthumb 30.3999 -29.9947
lclavicle 1.60022e-014 1.39149e-014
lhumerus -108.282 -53.7494 136.717
lradius 94.959
lwrist 12.9685
lhand -1.35053 2.21777
lfingers 7.12502
lthumb 24.2962 30.6981
rfemur -44.8788 -10.2807 27.1799
rtibia 63.5269
rfoot -21.3753 14.372
rtoes 10.6095
lfemur -43.9301 13.1656 -12.1393
ltibia 67.3863
lfoot -29.6052 -0.479974
ltoes -28.1983
730
root 0.0596504 15.9065 0.694395 13.2073 -2.98194 -5.50225
lowerback 6.00151 -2.87211 1.22419
upperback -4.20805 -3.61561 1.83655
thorax -7.7412 -1.78638 1.70078
lowerneck -11.4341 0.0205342 3.82386
upperneck 15.1464 0.23853 -5.4938
head 6.49474 -0.127026 -2.37202
rclavicle -1.36664e-014 1.39149e-014
rhumerus 20.7042 -64.0172 6.50354
rradius 37.2072
rwrist 28.789
rhand 4.53128 -2.39269
rfingers 7.12502
rthumb 29.9228 -29.9939
lclavicle -1.36664e-014 1.39149e-014
lhumerus -108.387 -53.7911 136.816
lradius 95.0052
lwrist 13.0682
lhand -1.51367 2.33294
lfingers 7.12502
lthumb 24.1398 30.8341
rfemur -44.9051 -10.2607 27.2684
rtibia 63.5066
rfoot -21.169 14.6081
rtoes 12.1242
lfemur -43.9844 13.1718 -12.0635
ltibia 67.3839
lfoot -29.5957 -0.4199
ltoes -28.4708
731
root 0.0572655 15.9067 0.695702 13.2057 -3.02901 -5.54155
lowerback 5.98857 -2.87013 1.25745
upperback -4.19184 -3.61122 1.82359
thorax -7.71931 -1.78654 1.66662
lowerneck -11.4643 0.0319424 3.82962
upperneck 15.1102 0.237748 -5.41458
head 6.48849 -0.120693 -2.3472
rclavicle 3.8763e-015 1.27222e-014
rhumerus 21.2563 -63.8427 6.13772
rradius 38.2594
rwrist 28.5209
rhand 3.84483 -2.18118
rfingers 7.12502
rthumb 29.2675 -29.8986
lclavicle 3.8763e-015 1.27222e-014
lhumerus -108.401 -53.8324 136.816
lradius 95.0196
lwrist 13.1405
lhand -1.52905 2.35526
lfingers 7.12502
lthumb 24.125 30.8584
rfemur -44.8755 -10.2128 27.3053
rtibia 63.4801
rfoot -21.0853 14.7239
rtoes 12.8704
lfemur -43.9557 13.226 -12.0183
ltibia 67.3706
lfoot -29.5964 -0.195043
ltoes -29.0864
732
root 0.0559382 15.9078 0.698339 13.1385 -3.1272 -5.57298
lowerback 6.06241 -2.86279 1.26199
upperback -4.16668 -3.60053 1.80787
thorax -7.7367 -1.78163 1.64964
lowerneck -11.5347 0.0713324 3.86684
upperneck 15.1213 0.271343 -5.34501
head 6.50602 -0.0974842 -2.32855
rclavicle 3.47873e-015 -4.37326e-015
rhumerus 21.8638 -63.672 5.6745
rradius 39.4479
rwrist 28.3065
rhand 3.46678 -1.97826
rfingers 7.12502
rthumb 28.9065 -29.7581
lclavicle 3.47873e-015 -4.37326e-015
lhumerus -108.42 -53.8673 136.816
lradius 95.0168
lwrist 13.1376
lhand -1.53315 2.29361
lfingers 7.12502
lthumb 24.1211 30.7973
rfemur -44.7684 -10.14 27.31
rtibia 63.4505
rfoot -21.1156 14.7382
rtoes 12.8646
lfemur -43.8213 13.2969 -11.9665
ltibia 67.3545
lfoot -29.6117 -0.240828
ltoes -28.9054
